<svg width="196" height="158" viewBox="0 0 196 158" xmlns="http://www.w3.org/2000/svg"><title>Pilot</title><path d="M88.75 62c2.956-1.9 6.474-3 10.25-3 10.493 0 19 8.507 19 19s-8.507 19-19 19a18.91 18.91 0 0 1-10-2.84V104h-9V62h8.75zM99 88.5c5.8 0 10.5-4.7 10.5-10.5S104.8 67.5 99 67.5 88.5 72.2 88.5 78 93.2 88.5 99 88.5zm17.305 1.75l22.93-9.84c.743-.317 1.518-1.21 1.723-1.984l3.547-13.316-4.275 1.586-2.313 5.29c-.207.58-.77 1.184-1.338 1.43l-16.532 7.136a21.083 21.083 0 0 1-3.743 9.698zm3.877-11.364l15.812-6.827c.19-.083.462-.373.532-.57l2.04-4.184-18.697 6.94a21.328 21.328 0 0 1 .312 4.64zm-.82-6.812l25.84-9.585.258-.967c.194-.735-.285-1.174-1.072-.975l-27.028 6.846a21.077 21.077 0 0 1 2 4.68zM78 89.52l-21.23-9.11c-.744-.317-1.52-1.21-1.725-1.984L51.498 65.11l4.275 1.586 2.313 5.29c.207.58.77 1.184 1.338 1.43L78 81.433v8.087zm0-9.694L60.01 72.06c-.19-.083-.463-.373-.532-.57l-2.04-4.184L78 74.938v4.888zm0-7.25L50.8 62.49l-.257-.967c-.194-.735.286-1.174 1.072-.975L78 67.23v5.347z" fill="#3A404C" fill-rule="evenodd"/></svg>
