<svg width="196" height="158" viewBox="0 0 196 158" xmlns="http://www.w3.org/2000/svg"><title>Pilot</title><path d="M88.75 62c2.956-1.9 6.474-3 10.25-3 10.493 0 19 8.507 19 19s-8.507 19-19 19a18.91 18.91 0 0 1-10-2.84V104h-9V62h8.75zM99 88.3c5.69 0 10.3-4.61 10.3-10.3S104.69 67.7 99 67.7 88.7 72.31 88.7 78 93.31 88.3 99 88.3zm18.972 1.234l21.263-9.123c.743-.317 1.518-1.21 1.723-1.984l3.547-13.316-4.275 1.586-2.313 5.29c-.207.58-.77 1.184-1.338 1.43l-15.478 6.68a22.063 22.063 0 0 1-3.13 9.438zm3.223-11.086l14.8-6.39c.19-.08.46-.37.53-.567l2.04-4.184-17.744 6.587a22.323 22.323 0 0 1 .375 4.555zm-.894-6.723l24.903-9.236.257-.967c.194-.735-.285-1.174-1.072-.975l-26.022 6.59a22.068 22.068 0 0 1 1.935 4.587zM77 89.092l-20.23-8.68c-.744-.32-1.52-1.212-1.725-1.986L51.498 65.11l4.275 1.586 2.313 5.29c.207.58.77 1.184 1.338 1.43L77 81.002v8.09zm0-9.698L60.01 72.06c-.19-.083-.463-.373-.532-.57l-2.04-4.184L77 74.566v4.828zm0-7.188L50.8 62.49l-.257-.967c-.194-.735.286-1.174 1.072-.975L77 66.978v5.228z" fill="#FFF" fill-rule="evenodd"/></svg>
