<svg width="196" height="196" viewBox="0 0 196 196" xmlns="http://www.w3.org/2000/svg"><title>Pilot</title><path d="M67.003 127.338h2.268c1.68 0 2.836-.42 3.613-1.302.735-.82 1.134-2.016 1.134-3.402 0-1.47-.462-2.604-1.365-3.465-.903-.862-1.87-1.177-3.507-1.177H63.37V132h3.633v-4.662zm0-2.92v-3.506h1.218c1.345 0 1.996.588 1.996 1.764 0 1.197-.63 1.743-2.016 1.743h-1.197zm16.63-6.425H80V132h3.633v-14.007zm10.67 0h-3.634V132h8v-3.087h-4.368v-10.92zm17.06-.42c-1.952 0-3.8.63-5.123 1.764-1.66 1.407-2.625 3.465-2.625 5.565 0 4.368 3.276 7.602 7.686 7.602 2.06 0 3.78-.588 5.188-1.764 1.68-1.407 2.625-3.486 2.625-5.712 0-1.932-.714-3.738-2.016-5.103-1.49-1.575-3.402-2.352-5.733-2.352zm0 3.528c2.185 0 3.95 1.765 3.95 3.928a3.943 3.943 0 0 1-3.95 3.948c-2.204 0-3.947-1.764-3.947-3.99 0-2.12 1.785-3.885 3.948-3.885zm19.27-.02h3.025v-3.087h-9.618v3.087H127V132h3.634v-10.92zM88.75 62c2.956-1.9 6.474-3 10.25-3 10.493 0 19 8.507 19 19s-8.507 19-19 19a18.91 18.91 0 0 1-10-2.84V104h-9V62h8.75zM99 88.3c5.69 0 10.3-4.61 10.3-10.3S104.69 67.7 99 67.7 88.7 72.31 88.7 78 93.31 88.3 99 88.3zm18.972 1.234l21.263-9.123c.743-.317 1.518-1.21 1.723-1.984l3.547-13.316-4.275 1.586-2.313 5.29c-.207.58-.77 1.184-1.338 1.43l-15.478 6.68a22.063 22.063 0 0 1-3.13 9.438zm3.223-11.086l14.8-6.39c.19-.08.46-.37.53-.567l2.04-4.184-17.744 6.587a22.323 22.323 0 0 1 .375 4.555zm-.894-6.723l24.903-9.236.257-.967c.194-.735-.285-1.174-1.072-.975l-26.022 6.59a22.068 22.068 0 0 1 1.935 4.587zM77 89.092l-20.23-8.68c-.744-.32-1.52-1.212-1.725-1.986L51.498 65.11l4.275 1.586 2.313 5.29c.207.58.77 1.184 1.338 1.43L77 81.002v8.09zm0-9.698L60.01 72.06c-.19-.083-.463-.373-.532-.57l-2.04-4.184L77 74.566v4.828zm0-7.188L50.8 62.49l-.257-.967c-.194-.735.286-1.174 1.072-.975L77 66.978v5.228z" fill="#FFF" fill-rule="evenodd"/></svg>
