<svg width="100" height="80" viewBox="0 0 100 80" xmlns="http://www.w3.org/2000/svg"><title>Pilot</title><path d="M44.73 31.5H40v22h5v-4.838A9.954 9.954 0 0 0 50 50c5.523 0 10-4.477 10-10s-4.477-10-10-10c-1.934 0-3.74.55-5.27 1.5zM50 45.25a5.25 5.25 0 1 0 0-10.5 5.25 5.25 0 0 0 0 10.5zM38 34.095L25.756 31.03c-.538-.134-.864.192-.723.73l2.172 8.265c.187.71.688 1.294 1.36 1.587L38 45.715v-6.01l-8.434-2.745-.57-2.01L38 37.45v-3.357zm22.735.317l13.51-3.382c.538-.134.864.192.722.73l-2.172 8.265a2.393 2.393 0 0 1-1.36 1.587l-11.222 4.88a12.043 12.043 0 0 0 1.883-6.818l8.34-2.714.57-2.01-9.165 2.546a12.015 12.015 0 0 0-1.105-3.084z" fill="#FFF" fill-rule="evenodd"/></svg>
