<svg width="100" height="100" viewBox="0 0 100 100" xmlns="http://www.w3.org/2000/svg"><title>Pilot</title><path d="M31.576 69.336h1.296c.96 0 1.62-.24 2.064-.744.42-.468.648-1.152.648-1.944 0-.84-.264-1.488-.78-1.98s-1.068-.672-2.004-.672h-3.3V72h2.076v-2.664zm0-1.668v-2.004h.696c.768 0 1.14.336 1.14 1.008 0 .684-.36.996-1.152.996h-.684zm9.772-3.672h-2.076V72h2.076v-8.004zm6.256 0h-2.076V72H50.1v-1.764h-2.496v-6.24zm9.964-.24c-1.116 0-2.172.36-2.928 1.008-.948.804-1.5 1.98-1.5 3.18 0 2.496 1.872 4.344 4.392 4.344 1.176 0 2.16-.336 2.964-1.008.96-.804 1.5-1.992 1.5-3.264a4.192 4.192 0 0 0-1.152-2.916c-.852-.9-1.944-1.344-3.276-1.344zm0 2.016a2.25 2.25 0 0 1 0 4.5c-1.26 0-2.256-1.008-2.256-2.28 0-1.212 1.02-2.22 2.256-2.22zm11.26-.012h1.728v-1.764H65.06v1.764h1.692V72h2.076v-6.24zM44.73 31.5H40v22h5v-4.838A9.954 9.954 0 0 0 50 50c5.523 0 10-4.477 10-10s-4.477-10-10-10c-1.934 0-3.74.55-5.27 1.5zM50 45.25a5.25 5.25 0 1 0 0-10.5 5.25 5.25 0 0 0 0 10.5zM38 34.095L25.756 31.03c-.538-.134-.864.192-.723.73l2.172 8.265c.187.71.688 1.294 1.36 1.587L38 45.715v-6.01l-8.434-2.745-.57-2.01L38 37.45v-3.357zm22.735.317l13.51-3.382c.538-.134.864.192.722.73l-2.172 8.265a2.393 2.393 0 0 1-1.36 1.587l-11.222 4.88a12.043 12.043 0 0 0 1.883-6.818l8.34-2.714.57-2.01-9.165 2.546a12.015 12.015 0 0 0-1.105-3.084z" fill="#FFF" fill-rule="evenodd"/></svg>
