<svg width="100" height="80" viewBox="0 0 100 80" xmlns="http://www.w3.org/2000/svg"><title>Pilot</title><path d="M44.73 31.5H40v22h5v-4.838A9.954 9.954 0 0 0 50 50c5.523 0 10-4.477 10-10s-4.477-10-10-10c-1.934 0-3.74.55-5.27 1.5zM50 45a5 5 0 1 0 0-10 5 5 0 0 0 0 10zm10.186-10.45l14.058-3.52c.54-.134.865.192.724.73l-2.173 8.265a2.393 2.393 0 0 1-1.36 1.587l-12.177 5.296a11.5 11.5 0 0 0 2.282-7.395l9-2.924.465-1.64-9.696 2.692a11.47 11.47 0 0 0-1.124-3.093zM38.5 34.22l-12.744-3.19c-.538-.134-.864.192-.723.73l2.172 8.265c.187.71.688 1.294 1.36 1.587l9.935 4.32v-6.406l-9.04-2.937-.465-1.64 9.505 2.638V34.22z" fill="#3A404C" fill-rule="evenodd"/></svg>
