<svg width="100" height="100" viewBox="0 0 100 100" xmlns="http://www.w3.org/2000/svg"><title>Pilot</title><path d="M31.576 69.336h1.296c.96 0 1.62-.24 2.064-.744.42-.468.648-1.152.648-1.944 0-.84-.264-1.488-.78-1.98s-1.068-.672-2.004-.672h-3.3V72h2.076v-2.664zm0-1.668v-2.004h.696c.768 0 1.14.336 1.14 1.008 0 .684-.36.996-1.152.996h-.684zm9.772-3.672h-2.076V72h2.076v-8.004zm6.256 0h-2.076V72H50.1v-1.764h-2.496v-6.24zm9.964-.24c-1.116 0-2.172.36-2.928 1.008-.948.804-1.5 1.98-1.5 3.18 0 2.496 1.872 4.344 4.392 4.344 1.176 0 2.16-.336 2.964-1.008.96-.804 1.5-1.992 1.5-3.264a4.192 4.192 0 0 0-1.152-2.916c-.852-.9-1.944-1.344-3.276-1.344zm0 2.016a2.25 2.25 0 0 1 0 4.5c-1.26 0-2.256-1.008-2.256-2.28 0-1.212 1.02-2.22 2.256-2.22zm11.26-.012h1.728v-1.764H65.06v1.764h1.692V72h2.076v-6.24zM44.73 31.5H40v22h5v-4.838A9.954 9.954 0 0 0 50 50c5.523 0 10-4.477 10-10s-4.477-10-10-10c-1.934 0-3.74.55-5.27 1.5zM50 45a5 5 0 1 0 0-10 5 5 0 0 0 0 10zm10.186-10.45l14.058-3.52c.54-.134.865.192.724.73l-2.173 8.265a2.393 2.393 0 0 1-1.36 1.587l-12.177 5.296a11.5 11.5 0 0 0 2.282-7.395l9-2.924.465-1.64-9.696 2.692a11.47 11.47 0 0 0-1.124-3.093zM38.5 34.22l-12.744-3.19c-.538-.134-.864.192-.723.73l2.172 8.265c.187.71.688 1.294 1.36 1.587l9.935 4.32v-6.406l-9.04-2.937-.465-1.64 9.505 2.638V34.22z" fill="#3A404C" fill-rule="evenodd"/></svg>
